<?xml version="1.0" encoding="UTF-8"?>
<svg width="80px" height="80px" viewBox="0 0 80 80" version="1.1" xmlns="http://www.w3.org/2000/svg" xmlns:xlink="http://www.w3.org/1999/xlink">
    <title>black_discord@1x</title>
    <g id="CELESTIA" stroke="none" stroke-width="1" fill="none" fill-rule="evenodd">
        <g id="ONLYICONS" transform="translate(-60.000000, -68.000000)">
            <g id="black_discord" transform="translate(60.000000, 68.000000)">
                <path d="M33.7129392,24 L34.1071123,24.4730077 C27.0119966,26.4832905 23.7797772,29.5972579 23.7797772,29.5972579 C23.7797772,29.5972579 24.646958,29.1242502 26.1053985,28.4935733 C30.3230506,26.6409597 33.6735219,26.167952 35.0531277,26.0102828 C35.2896315,25.9708655 35.4867181,25.9314482 35.7232219,25.9314482 C38.1276778,25.6161097 40.8474722,25.5372751 43.6855184,25.8526135 C47.4301628,26.2862039 51.4507284,27.3898886 55.5501285,29.5972579 C55.5501285,29.5972579 52.4361611,26.6409597 45.7352185,24.6306769 L46.2870608,24 L46.4002676,24.0001631 C47.2040427,24.0110971 52.1649166,24.2391762 57.3239075,28.0994002 C57.3239075,28.0994002 63,38.3084833 63,50.882605 C63,50.8431877 59.688946,56.5192802 50.9777207,56.7952014 C50.9777207,56.7952014 50.020242,55.6515464 49.0228685,54.4347506 L48.6325919,53.9572557 C48.5463162,53.8513719 48.4606439,53.7459909 48.3761782,53.6418166 C53.5398458,52.1833762 55.5107112,48.9905741 55.5107112,48.9905741 C53.8946015,50.0548415 52.3573265,50.8037704 50.9777207,51.3161954 C49.0068552,52.1439589 47.1148243,52.6563839 45.2622108,53.0111397 C41.4781491,53.7206512 38.0094259,53.5235647 35.0531277,52.9717224 C32.806341,52.538132 30.8748929,51.9468723 29.2587832,51.2767781 C28.3521851,50.9220223 27.3667524,50.4884319 26.3813196,49.9365895 C26.2630677,49.8577549 26.1448158,49.8183376 26.0265638,49.739503 C25.9477292,49.7000857 25.9083119,49.6606684 25.8688946,49.6606684 C25.159383,49.2664953 24.7652099,48.9905741 24.7652099,48.9905741 C24.7652099,48.9905741 26.6572408,52.1045416 31.6632391,53.6023993 C30.4807198,55.1002571 29.0222793,56.8346187 29.0222793,56.8346187 C20.311054,56.5586975 17,50.882605 17,50.882605 C17,38.3084833 22.6760925,28.0994002 22.6760925,28.0994002 C27.8711603,24.2391762 32.8020721,24.0110971 33.6005097,24.0001631 L33.7129392,24 L33.7129392,24 Z M47.0359897,38.5449871 C44.7892031,38.5449871 43.0154242,40.4764353 43.0154242,42.8808912 C43.0154242,45.285347 44.8286204,47.2167952 47.0359897,47.2167952 C49.2827763,47.2167952 51.0565553,45.285347 51.0565553,42.8808912 C51.0565553,40.4764353 49.243359,38.5449871 47.0359897,38.5449871 Z M32.6486718,38.5449871 C30.4018852,38.5449871 28.6281063,40.4764353 28.6281063,42.8808912 C28.6281063,45.285347 30.4413025,47.2167952 32.6486718,47.2167952 C34.8954584,47.2167952 36.6692374,45.285347 36.6692374,42.8808912 C36.7086547,40.4764353 34.8954584,38.5449871 32.6486718,38.5449871 Z" id="Combined-Shape" fill="#000000" fill-rule="nonzero"></path>
                <rect id="Rectangle" x="0" y="0" width="80" height="80"></rect>
            </g>
        </g>
    </g>
</svg>