<?xml version="1.0" encoding="UTF-8"?>
<svg width="80px" height="80px" viewBox="0 0 80 80" version="1.1" xmlns="http://www.w3.org/2000/svg" xmlns:xlink="http://www.w3.org/1999/xlink">
    <title>black_github@1x</title>
    <g id="CELESTIA" stroke="none" stroke-width="1" fill="none" fill-rule="evenodd">
        <g id="ONLYICONS" transform="translate(-160.000000, -68.000000)">
            <g id="black_github" transform="translate(160.000000, 68.000000)">
                <path d="M48.1683134,60.9283096 C48.1683134,60.0228971 48.202224,56.2215209 48.202224,52.5286586 C48.202224,49.9514545 47.3188533,48.2660986 46.3269688,47.4132474 C52.4800438,46.7299492 58.938314,44.3952057 58.938314,33.7845848 C58.938314,30.7699341 57.8684352,28.3046349 56.0983028,26.3734273 C56.3831517,25.6748693 57.3309524,22.8670732 55.8236271,19.0640015 C55.8236271,19.0640015 53.5092299,18.3213597 48.2361345,21.895535 C46.0302512,21.283449 43.6666837,20.9765583 41.321767,20.9663851 C38.9734592,20.9765583 36.6098917,21.283449 34.4073995,21.895535 C29.130913,18.3213597 26.8114293,19.0640015 26.8114293,19.0640015 C25.3091905,22.8670732 26.2569913,25.6748693 26.5418401,26.3734273 C24.7750988,28.3046349 23.6984379,30.7699341 23.6984379,33.7845848 C23.6984379,44.3680772 30.1465349,46.7384269 36.2792636,47.4352893 C35.489147,48.1253697 34.7770248,49.3427595 34.5260865,51.1281516 C32.95094,51.8351873 28.9511869,53.0525771 26.4875832,48.8324053 C26.4875832,48.8324053 25.0294282,46.1822933 22.2572382,45.985612 C22.2572382,45.985612 19.5596514,45.9517014 22.0673389,47.6658813 C22.0673389,47.6658813 23.878164,48.5153413 25.134551,51.706327 C25.134551,51.706327 26.7554768,57.0777631 34.437919,55.407667 C34.4514832,57.7135865 34.4752206,60.2721399 34.4752206,60.9283096 L48.1683134,60.9283096 Z" id="Fill-1" fill="#000000"></path>
                <rect id="Rectangle-Copy" x="0" y="0" width="80" height="80"></rect>
            </g>
        </g>
    </g>
</svg>