<?xml version="1.0" encoding="utf-8"?>
<!-- Generator: Adobe Illustrator 27.0.1, SVG Export Plug-In . SVG Version: 6.00 Build 0)  -->
<svg version="1.1" id="Layer_1" xmlns="http://www.w3.org/2000/svg" xmlns:xlink="http://www.w3.org/1999/xlink" x="0px" y="0px"
	 viewBox="0 0 1200 1200" style="enable-background:new 0 0 1200 1200;" xml:space="preserve">
<path d="M1133.2,487C1070.6,192.4,781,4.4,486.5,67.1C383.4,89,288.9,140.4,214.4,214.9c-24.8,24.8-47.1,51.8-66.7,80.8
	c-5.8,7.8-11,16-15.6,24.5c-154.3,258.7-69.6,593.4,189.1,747.7s593.4,69.6,747.7-189.1c11.3-18.9,21.4-38.4,30.3-58.6
	c3.3-6.7,6.1-13.7,8.6-20.7c38.4-99,47.4-206.9,25.8-310.9L1133.2,487z M944.1,237.7c3.1,3,6.2,6,9.3,9.1
	c47.5,47.3,84.9,103.7,110.1,165.8c1.8,4.3-0.3,9.2-4.6,11c-1.5,0.6-3.1,0.8-4.7,0.5c-16-2.7-32.2-3.9-48.4-3.4
	c-12.4,0.3-23.1-8.5-25.3-20.7c-8.7-51-22.7-100.8-41.9-148.9l-3.1-7.4c-1.2-2.7,0-5.9,2.7-7.1C940.2,235.7,942.6,236.2,944.1,237.7
	L944.1,237.7z M996,557.5c0-3.2,2.5-5.9,5.8-5.9c1.9,0,3.7,0.9,4.8,2.4c4.1,5.7,8,11.5,11.8,17.3c5,7.7,9.7,15.3,14,22.9
	c2.7,4.7,2.1,10.7-1.6,14.7c-5.9,6.5-12.2,13.2-19,19.9l-7.5,7.6c-1.8,2-4.9,2.1-6.9,0.3c-1.1-1-1.7-2.5-1.6-4
	c0.3-8.2,0.5-16.4,0.7-24.5C996.5,591,996.4,574.2,996,557.5L996,557.5z M309.5,193.1c84.6-60.6,186.2-93.1,290.3-92.8
	c27.6,0,55.1,2.2,82.3,6.7c4.6,0.8,7.6,5.2,6.8,9.7c-0.3,2-1.4,3.7-2.9,5c-26.1,20.5-50.4,50.8-71.8,90.1
	c-5.2,9.6-16.4,14.3-26.9,11.3c-66.8-19.5-136.2-28.7-205.8-27.1c-22.7,0.7-45.3,3.1-67.7,7.2c-3.1,0.4-5.9-1.7-6.4-4.8
	C307.1,196.4,307.9,194.3,309.5,193.1L309.5,193.1z M238.2,940c-10.5-19.9,3.1-65.8,72.1-135.6l0,0c6.7-6.7,6.6-17.6-0.1-24.3
	c-0.4-0.4-0.9-0.9-1.4-1.3l-8.2-6.6c-6.9-5.6-16.8-5-23,1.2l-2.7,2.7c-34.3,35.4-58.8,68.2-72.2,97.7c-2.7,5.9-9.7,8.5-15.6,5.8
	c-2-0.9-3.7-2.4-4.9-4.2c-53.9-81.6-82.6-177.3-82.3-275.1c0-35.1,3.6-70,10.9-104.3c-0.1-2.7,2-5,4.7-5.1c2.7-0.1,5,2,5.1,4.7
	c11.8,37.4,28.8,72.9,50.5,105.5c34.1,51.2,75.1,97.4,121.9,137.3l0,0c16.8,14.7,34.3,28.6,52.9,42.1c38.5,28.1,79,53.3,121.3,75.3
	c19.2,9.8,37.9,19.6,57,28c10.6,4.8,22.8,5.2,33.6,0.9c9-3.5,18.1-7.2,27.2-11c9.9-4.1,15.4-15,12.7-25.4c-0.3-1.3-0.6-2.4-0.7-3
	c-15.8-68.7-24-138.9-24.5-209.4l0,0v-2.7c0-4.1,0-8.2,0-12.3c0-1.3,0-3.5,0-4.9v-1.6l0,0c0-4.7,0-9.3,0-14
	c0-12.8,0.7-25.5,1.4-38.1l0,0c4.9-90.2,20-174.9,44.1-246.1c2.2-6.6-1.3-13.8-7.8-16c-6.5-2.2-12.9-4.3-19.3-6.3
	c-6.5-2-13.4,1.5-15.6,7.9c-26.3,77.4-42.6,169.2-47,266.4c-0.5,12.3-7.3,23.5-17.8,29.8c-54.4,32-106.6,67.6-156.1,106.7
	c-9.5,7.6-23.1,7.3-32.3-0.7c-43.5-37-81.7-79.9-113.4-127.5c-57.2-87.9-70.8-170.6-38.3-233l0.2-0.4c4.2-6.9,8.5-13.7,12.9-20.4
	c37.4-49.5,107-78.2,199.3-81.4c5.8-0.2,11.7-0.3,17.7-0.3c60.7,0.7,121,9.8,179.2,27.2l0,0l4.1,1.2l3.1,0.9l0,0
	c14.3,4.3,28.6,9,42.9,14.1l0,0l1,0.3l11.2,4.2l3.5,1.3l3.4,1.3l0,0c30.8,11.9,60.8,25.5,90.1,40.7
	c55.7,28.8,108.1,63.5,156.3,103.6c-87.6,20.1-189.4,58.8-291.8,111c-4.7,2.4-7.8,7.1-8.1,12.5c-0.4,6.3-0.8,19.1-1.2,29.4
	c-0.2,4.6,3.4,8.4,8,8.6c1.4,0,2.9-0.3,4.2-1l0,0c101.3-53.2,202.5-93.2,289.3-114c16.2-3.9,26.8-19.5,24.5-36.1
	c-1.6-11.6-3.4-23-5.4-34.3c-2.5-14-10.2-26.6-21.5-35.2c-42-31.9-86.7-60.1-133.6-84.4c-31.8-16.6-64.6-31.3-98.1-44.1
	c-6.4-2.4-9.6-9.5-7.2-15.9c0.2-0.6,0.5-1.1,0.8-1.7c33.9-60.6,74.2-94.6,113.5-94.6h1.2c46.3,0.8,92.5,49,126.7,132.4
	c18.6,46.2,32.1,94.3,40.3,143.5l0,0c3.9,22.6,7.1,45.8,9.4,69.7l-0.6,0.4l0.8,0.8c4,41.4,5.6,82.9,4.9,124.5
	c-0.5,27-1.9,53.5-4.2,79.6c-69.6,55.1-144.2,103.5-222.8,144.5c-27.7,14.7-55.4,28.3-82.7,40.9l-1.3,0.6l-6.3,2.8l0,0
	c-22.7,10.3-45.1,19.8-67.3,28.4l0,0l-3.7,1.4l-4.9,1.8l-11.1,4.2l-3,1.1l-13.4,4.9l-1.6,0.6l0,0c-43.6,15.9-88.2,28.4-133.7,37.6
	C295.7,974.8,249.1,960.1,238.2,940z M375.2,745.9c48.2-38.8,99.1-74,152.3-105.6c0.8,68.9,8.6,137.5,23.2,204.8
	c-21-9-41.9-18.8-62.7-29.4C448.7,795.3,411,772,375.2,745.9z M664.5,1096.3c-21.4,2.8-42.9,4.1-64.5,4.1
	c-95.7,0.3-189.5-27.1-270-78.9c-3.1-2-4-6.2-2-9.3c1.2-1.8,3.2-3,5.3-3.1h3.8c22.3-1.6,44.5-4.6,66.5-9
	c57.3-11.7,113.5-28.2,167.9-49.6c5.4-2,11.3,0.6,13.5,5.9l0,0c23.1,56.3,51.6,98.8,83.4,125.9c3.3,2.9,3.7,7.9,0.8,11.3
	C667.9,1095,666.2,1096,664.5,1096.3L664.5,1096.3z M875.9,962.8c-35.7,70.2-79.7,109.6-122.3,108.8c-46.3-0.8-92.5-49-126.7-132.4
	l0,0c-2.1-5.3,0.3-11.4,5.6-13.6l1.1-0.4c2.2-1,4.8-1.2,7.1-0.5c60.6,17.5,123.3,26.7,186.3,27.3c6.4,0,12.8,0,19.1-0.3
	c7.4-0.2,14.7-0.6,21.9-1.2c4.7-0.1,8.6,3.5,8.8,8.3C876.7,960.1,876.4,961.5,875.9,962.8L875.9,962.8z M891.4,902.3
	c-15.6,2.3-31.3,3.6-47,4.2c-42.2,1.2-84.5-2.2-126-10.1c-3.1-0.6-5.1-3.5-4.5-6.6c0.3-1.7,1.4-3.2,3-4c9.5-4.9,19-9.8,28.4-14.7
	c63.6-33.5,124.8-71.4,183.1-113.4c2.5-1.8,6-1.3,7.9,1.2c0.9,1.2,1.2,2.8,1,4.2c-7,43-17.5,85.4-31.3,126.7
	C903.9,896.5,898.2,901.3,891.4,902.3z M964.9,942c-3.8,4-7.6,8-11.5,11.9c-6.8,6.8-13.8,13.4-20.9,19.6c-2.3,2.1-5.8,1.9-7.8-0.4
	c-1.5-1.7-1.9-4.1-0.9-6.1l2.2-4.9c3-6.5,5.9-13.3,8.7-20.3c0.7-1.6,2.1-2.8,3.8-3.3c7.1-1.8,14-3.8,20.7-5.9
	c2.7-1.4,6.1-0.3,7.4,2.5C967.7,937.5,967,940.4,964.9,942z M1065.4,783.4c-2.4,6.1-4.9,12.2-7.6,18.2c-0.4,0.8-0.8,1.7-1.2,2.5
	c-16.5,31.7-44.1,56.7-81.1,74.1c-5.4,2.4-11.7,0-14.1-5.3c-1-2.3-1.2-4.8-0.6-7.2c12.8-46.4,22-93.7,27.6-141.5
	c1.1-9.3,5.7-17.9,12.8-24c15.2-13.2,29.4-26.3,42.5-39.2l0,0c4.7-4.7,12.3-4.7,17-0.1c1.4,1.4,2.4,3.1,3,5
	C1076.6,708.6,1077.3,748.5,1065.4,783.4L1065.4,783.4z M1075.2,549.1c-2.8,4.9-9,6.7-13.9,3.9c-1.4-0.8-2.7-2-3.6-3.4l-1.9-3
	c-15.4-23.6-32.6-46.1-51.2-67.3c-3-3.5-2.6-8.7,0.9-11.8c1.5-1.3,3.4-2,5.4-2l0,0c44.8,0,68.3,11.1,75.5,24.5
	c6.4,11.4,4.6,31.1-10.9,58.9L1075.2,549.1z M1099.4,615.2c0,1.7-1.5,3.1-3.2,3.1c-1.2,0-2.3-0.8-2.8-1.9c-0.5-1.3-1.1-2.7-1.7-4
	c-1.1-2.5-0.8-5.3,0.8-7.5l1.8-2.4c2.2-2.8,5.3-2.4,5.3,0.7c0.2,4.2,0.1,7.8,0,12.1H1099.4z"/>
</svg>
